<svg width="200" height="200" viewBox="0 0 200 200" xmlns="http://www.w3.org/2000/svg">
  <defs>
    <linearGradient id="grad1" x1="0%" y1="0%" x2="100%" y2="100%">
      <stop offset="0%" style="stop-color:#2563eb;stop-opacity:1" />
      <stop offset="100%" style="stop-color:#1d4ed8;stop-opacity:1" />
    </linearGradient>
  </defs>
  <!-- Gear -->
  <path d="M100 25 L110 5 L130 10 L135 30 L155 35 L170 20 L185 35 L170 55 L175 75 L195 80 L195 100 L175 105 L170 125 L185 145 L170 160 L155 145 L135 150 L130 170 L110 175 L100 155 L90 175 L70 170 L65 150 L45 145 L30 160 L15 145 L30 125 L25 105 L5 100 L5 80 L25 75 L30 55 L15 35 L30 20 L45 35 L65 30 L70 10 L90 5 Z" fill="url(#grad1)" />
  <!-- Center Hole / Location Pin Background -->
  <circle cx="100" cy="100" r="50" fill="white" />
  <!-- Location Pin -->
  <path d="M100 60 C80 60 65 75 65 95 C65 125 100 155 100 155 C100 155 135 125 135 95 C135 75 120 60 100 60 Z M100 110 C91.7 110 85 103.3 85 95 C85 86.7 91.7 80 100 80 C108.3 80 115 86.7 115 95 C115 103.3 108.3 110 100 110 Z" fill="#f59e0b" />
</svg>
